<svg xmlns="http://www.w3.org/2000/svg" width="123" height="123" viewBox="0 0 123 123"><defs><style>.a{fill:#fff;}.b,.c{fill:#1feac3;}.c{opacity:0.732;}</style></defs><path class="a" d="M61.5,0C109.63,0,123,14.054,123,61.5S109.63,123,61.5,123,0,108.946,0,61.5,13.37,0,61.5,0Z" transform="translate(0)"/><path class="b" d="M-451.5-1175h-57a4,4,0,0,1-4-4v-38a4,4,0,0,1,4-4h57a4,4,0,0,1,4,4v38A4,4,0,0,1-451.5-1175Zm-56.991-44a2,2,0,0,0-2,2v38a2,2,0,0,0,2,2h57a2,2,0,0,0,2-2v-38a2,2,0,0,0-2-2Z" transform="translate(540.5 1256)"/><path class="b" d="M-464.409-1216H-529a3,3,0,0,1-3-3v-1h28.878a1.99,1.99,0,0,0,.587,1.414,1.986,1.986,0,0,0,1.413.587h9.9a2,2,0,0,0,2-2h27.809v1A3,3,0,0,1-464.409-1216Z" transform="translate(557 1302)"/><rect class="c" width="13" height="33" rx="2" transform="translate(34 42)"/><rect class="c" width="37" height="9" rx="2" transform="translate(50 42)"/><rect class="c" width="37" height="21" rx="2" transform="translate(50 54)"/></svg>